<svg height='100px' width='100px'  fill="#8500CC" xmlns="http://www.w3.org/2000/svg" xmlns:xlink="http://www.w3.org/1999/xlink" version="1.1" x="0px" y="0px" viewBox="0 0 66 66" enable-background="new 0 0 66 66" xml:space="preserve"><g><g><path d="M5.7,24.9c0-0.6,0.5-1,1-1h29.3v-2H6.7c-1.6,0-3,1.3-3,3V51h2V24.9z"></path></g><g><rect x="52" y="44.9" width="2" height="6.1"></rect></g><g><path d="M55.8,53H2c-0.5,0-1,0.5-1,1c0.1,0.3-1.3,8.8,6,8.8h43.7c7.1,0,5.9-8.6,6-8.8C56.8,53.5,56.3,53,55.8,53z M31,58.9h-4.3    c-0.5,0-1-0.5-1-1s0.5-1,1-1H31c0.5,0,1,0.5,1,1S31.6,58.9,31,58.9z"></path></g><g><path d="M38.1,35.5h27V12h-27V35.5z M54.5,14.7h4c0.6,0,1,0.4,1,1s-0.4,1-1,1h-4c-0.6,0-1-0.4-1-1S54,14.7,54.5,14.7z M54.5,20.1    h4c0.6,0,1,0.4,1,1s-0.4,1-1,1h-4c-0.6,0-1-0.4-1-1S54,20.1,54.5,20.1z M54.5,25.4h4c0.6,0,1,0.4,1,1c0,0.6-0.4,1-1,1h-4    c-0.6,0-1-0.4-1-1C53.5,25.9,54,25.4,54.5,25.4z M54.5,30.7h4c0.6,0,1,0.4,1,1c0,0.6-0.4,1-1,1h-4c-0.6,0-1-0.4-1-1    C53.5,31.2,54,30.7,54.5,30.7z M44.5,14.7h4c0.6,0,1,0.4,1,1s-0.4,1-1,1h-4c-0.6,0-1-0.4-1-1S44,14.7,44.5,14.7z M44.5,20.1h4    c0.6,0,1,0.4,1,1s-0.4,1-1,1h-4c-0.6,0-1-0.4-1-1S44,20.1,44.5,20.1z M44.5,25.4h4c0.6,0,1,0.4,1,1c0,0.6-0.4,1-1,1h-4    c-0.6,0-1-0.4-1-1C43.5,25.9,44,25.4,44.5,25.4z M44.5,30.7h4c0.6,0,1,0.4,1,1c0,0.6-0.4,1-1,1h-4c-0.6,0-1-0.4-1-1    C43.5,31.2,44,30.7,44.5,30.7z"></path></g><g><path d="M62,3.1h-21c-1.6,0-3,1.3-3,3V10h27V6.1C65,4.5,63.7,3.1,62,3.1z"></path></g><g><path d="M38.1,39.9c0,1.7,1.4,3,3,3h21c1.7,0,3-1.3,3-3v-2.4h-27V39.9z"></path></g><g><path d="M10.7,43.1h22.3c0.6,0,1-0.5,1-1c0-0.6-0.4-1-1-1H10.7c-0.6,0-1,0.4-1,1C9.7,42.6,10.2,43.1,10.7,43.1z"></path></g><g><path d="M25,35.9h8c0.6,0,1-0.4,1-1c0-0.5-0.4-1-1-1h-8c-0.5,0-1,0.5-1,1C24,35.5,24.5,35.9,25,35.9z"></path></g><g><path d="M10.7,49.1H47c0.6,0,1-0.5,1-1c0-0.6-0.4-1-1-1H10.7c-0.6,0-1,0.4-1,1C9.7,48.6,10.2,49.1,10.7,49.1z"></path></g><g><path d="M25,29.9h8c0.6,0,1-0.5,1-1s-0.4-1-1-1h-8c-0.5,0-1,0.5-1,1S24.5,29.9,25,29.9z"></path></g><g><path d="M10.7,37.1H19c0.6,0,1-0.5,1-1v-8.3c0-0.6-0.4-1-1-1h-8.3c-0.6,0-1,0.4-1,1v8.3C9.7,36.6,10.2,37.1,10.7,37.1z"></path></g></g></svg>